<svg id="Layer_1" data-name="Layer 1" xmlns="http://www.w3.org/2000/svg" viewBox="0 0 565.72 478.71"><defs><style>.cls-1,.cls-2{fill:#ecf2f6;}.cls-2{font-size:18px;font-family:Oswald-ExtraLight, Oswald;letter-spacing:0.2em;}.cls-3{fill:none;stroke:#ebf1f6;stroke-miterlimit:10;}</style></defs><title>lf-logo</title><path class="cls-1" d="M384.62,359.35V339.92h3.95v16.73h4.54v2.7Z"/><path class="cls-1" d="M405,359.6a7.53,7.53,0,0,1-2.7-.43,4,4,0,0,1-1.78-1.28,5.43,5.43,0,0,1-1-2,10.83,10.83,0,0,1-.3-2.71V346a10.76,10.76,0,0,1,.3-2.7,5.27,5.27,0,0,1,1-2,4,4,0,0,1,1.78-1.25,7.63,7.63,0,0,1,2.7-.42q3.08,0,4.42,1.61a7.25,7.25,0,0,1,1.34,4.75v7.17a7.37,7.37,0,0,1-1.34,4.78Q408.09,359.6,405,359.6Zm-.76-3a1.8,1.8,0,0,0,.76.15,1.84,1.84,0,0,0,.77-.15,1.36,1.36,0,0,0,.5-.37,1.64,1.64,0,0,0,.29-.59,3.65,3.65,0,0,0,.13-.7q0-.33,0-.8v-9.09q0-.47,0-.8a3.43,3.43,0,0,0-.13-.69,1.58,1.58,0,0,0-.29-.57,1.34,1.34,0,0,0-.5-.36,1.91,1.91,0,0,0-.77-.14,1.87,1.87,0,0,0-.76.14,1.3,1.3,0,0,0-.49.36,1.57,1.57,0,0,0-.28.57,3.82,3.82,0,0,0-.13.69q0,.33,0,.8v9.09q0,.47,0,.8a3.94,3.94,0,0,0,.13.7,1.64,1.64,0,0,0,.28.59A1.32,1.32,0,0,0,404.24,356.61Z"/><path class="cls-1" d="M418.16,359.35V339.92h2.75L425.25,350V339.92h3.28v19.43H425.9l-4.36-10.73v10.73Z"/><path class="cls-1" d="M436.22,359.35V339.92h4.72a11.67,11.67,0,0,1,3.06.34,4.16,4.16,0,0,1,2,1.11,4.37,4.37,0,0,1,1,1.88,10.64,10.64,0,0,1,.3,2.77v7a11.24,11.24,0,0,1-.3,2.84,4.62,4.62,0,0,1-1,2A4.15,4.15,0,0,1,444,359a10.56,10.56,0,0,1-3,.36Zm3.95-2.75H441a5.13,5.13,0,0,0,.73,0,1.83,1.83,0,0,0,.56-.16,2.61,2.61,0,0,0,.4-.24.94.94,0,0,0,.28-.36,3.43,3.43,0,0,0,.18-.44,2.71,2.71,0,0,0,.09-.57q0-.36,0-.64t0-.76v-7.79q0-.69,0-1.1a3.35,3.35,0,0,0-.16-.79,1.14,1.14,0,0,0-.38-.57,2,2,0,0,0-.67-.3,4.21,4.21,0,0,0-1.05-.11h-.79Z"/><path class="cls-1" d="M460.13,359.6a7.53,7.53,0,0,1-2.7-.43,4,4,0,0,1-1.78-1.28,5.43,5.43,0,0,1-1-2,10.83,10.83,0,0,1-.3-2.71V346a10.76,10.76,0,0,1,.3-2.7,5.27,5.27,0,0,1,1-2,4,4,0,0,1,1.78-1.25,7.63,7.63,0,0,1,2.7-.42q3.08,0,4.42,1.61a7.25,7.25,0,0,1,1.34,4.75v7.17a7.37,7.37,0,0,1-1.34,4.78Q463.21,359.6,460.13,359.6Zm-.76-3a1.8,1.8,0,0,0,.76.15,1.84,1.84,0,0,0,.77-.15,1.36,1.36,0,0,0,.5-.37,1.64,1.64,0,0,0,.29-.59,3.65,3.65,0,0,0,.13-.7q0-.33,0-.8v-9.09q0-.47,0-.8a3.43,3.43,0,0,0-.13-.69,1.58,1.58,0,0,0-.29-.57,1.34,1.34,0,0,0-.5-.36,1.91,1.91,0,0,0-.77-.14,1.87,1.87,0,0,0-.76.14,1.3,1.3,0,0,0-.49.36,1.57,1.57,0,0,0-.28.57,3.82,3.82,0,0,0-.13.69q0,.33,0,.8v9.09q0,.47,0,.8a3.94,3.94,0,0,0,.13.7,1.64,1.64,0,0,0,.28.59A1.32,1.32,0,0,0,459.37,356.61Z"/><path class="cls-1" d="M473.28,359.35V339.92H476L480.37,350V339.92h3.28v19.43H481l-4.36-10.73v10.73Z"/><path class="cls-1" d="M502.17,359.35V339.92h8.23v2.71h-4.28v5.24h3.55v2.77h-3.55v8.72Z"/><path class="cls-1" d="M522.56,359.6a7.53,7.53,0,0,1-2.7-.43,4,4,0,0,1-1.78-1.28,5.43,5.43,0,0,1-1-2,10.83,10.83,0,0,1-.3-2.71V346a10.76,10.76,0,0,1,.3-2.7,5.27,5.27,0,0,1,1-2,4,4,0,0,1,1.78-1.25,7.63,7.63,0,0,1,2.7-.42q3.08,0,4.42,1.61a7.25,7.25,0,0,1,1.34,4.75v7.17A7.37,7.37,0,0,1,527,358Q525.64,359.6,522.56,359.6Zm-.76-3a1.8,1.8,0,0,0,.76.15,1.84,1.84,0,0,0,.77-.15,1.36,1.36,0,0,0,.5-.37,1.64,1.64,0,0,0,.29-.59,3.65,3.65,0,0,0,.13-.7q0-.33,0-.8v-9.09q0-.47,0-.8a3.43,3.43,0,0,0-.13-.69,1.58,1.58,0,0,0-.29-.57,1.34,1.34,0,0,0-.5-.36,1.91,1.91,0,0,0-.77-.14,1.87,1.87,0,0,0-.76.14,1.3,1.3,0,0,0-.49.36,1.57,1.57,0,0,0-.28.57,3.82,3.82,0,0,0-.13.69q0,.33,0,.8v9.09q0,.47,0,.8a3.94,3.94,0,0,0,.13.7,1.64,1.64,0,0,0,.28.59A1.32,1.32,0,0,0,521.8,356.61Z"/><path class="cls-1" d="M540.7,359.61a5.94,5.94,0,0,1-2.47-.47,3.86,3.86,0,0,1-1.64-1.37,6.19,6.19,0,0,1-.88-2.1,12.6,12.6,0,0,1-.28-2.79v-6.4a14.3,14.3,0,0,1,.17-2.33,7,7,0,0,1,.58-1.88,4.26,4.26,0,0,1,1.05-1.42,4.56,4.56,0,0,1,1.62-.87,7.51,7.51,0,0,1,2.27-.31,8,8,0,0,1,2.61.38,3.85,3.85,0,0,1,1.73,1.14,4.73,4.73,0,0,1,.93,1.78,8.87,8.87,0,0,1,.29,2.39v1.1h-3.83v-1.31q0-.54,0-.88a4,4,0,0,0-.12-.71,1.46,1.46,0,0,0-.27-.58,1.28,1.28,0,0,0-.49-.35,1.93,1.93,0,0,0-.77-.13,1.74,1.74,0,0,0-.81.17,1.42,1.42,0,0,0-.5.41,1.84,1.84,0,0,0-.28.67,4.55,4.55,0,0,0-.12.77q0,.34,0,.89v8.43a4.77,4.77,0,0,0,.39,2.16,1.48,1.48,0,0,0,1.44.74,1.53,1.53,0,0,0,1.48-.79,4.94,4.94,0,0,0,.42-2.26v-1.91h-1.91v-2.44h5.47v10h-2.59l-.26-1.78A3.2,3.2,0,0,1,540.7,359.61Z"/><path class="cls-1" d="M340.38,314.25a2.06,2.06,0,0,1-.73-.11,1.34,1.34,0,0,1-.48-.29,1.22,1.22,0,0,1-.28-.47,2.66,2.66,0,0,1-.13-.59,6.84,6.84,0,0,1,0-.7v-7.72h-1.36v-.63h1.36v-3.32h.95v3.32h1.77v.63h-1.77V312a2.81,2.81,0,0,0,.18,1.21.77.77,0,0,0,.74.32,4.66,4.66,0,0,0,.76-.09v.72A3.68,3.68,0,0,1,340.38,314.25Z"/><path class="cls-1" d="M346.43,314.14V299.57h1v5.27a3.22,3.22,0,0,1,2.47-1.27,1.46,1.46,0,0,1,1.2.55,2.71,2.71,0,0,1,.45,1.73v8.3h-1v-8.19a2.17,2.17,0,0,0-.28-1.27,1,1,0,0,0-.81-.36,2.92,2.92,0,0,0-2.06,1.14v8.68Z"/><path class="cls-1" d="M359.53,314.31a3.43,3.43,0,0,1-.91-.11,2,2,0,0,1-1.29-1.1,4.37,4.37,0,0,1-.33-1.15,10.06,10.06,0,0,1-.12-1.65v-2.78a9.77,9.77,0,0,1,.12-1.66,4.26,4.26,0,0,1,.34-1.14,1.9,1.9,0,0,1,.56-.69,2.05,2.05,0,0,1,.73-.36,3.8,3.8,0,0,1,.91-.1,2.13,2.13,0,0,1,2,.94,6.61,6.61,0,0,1,.56,3.2l0,1h-4.25v1.66a5.78,5.78,0,0,0,.38,2.53,1.37,1.37,0,0,0,1.31.69,2.67,2.67,0,0,0,.46,0,1.49,1.49,0,0,0,.44-.16,1.06,1.06,0,0,0,.39-.35,2,2,0,0,0,.25-.64,4.29,4.29,0,0,0,.1-1v-.77h.94v.69a3.62,3.62,0,0,1-.59,2.22A2.32,2.32,0,0,1,359.53,314.31Zm-1.7-6.18h3.32v-.81q0-.62,0-1a5,5,0,0,0-.12-.83,1.77,1.77,0,0,0-.27-.65,1.24,1.24,0,0,0-.47-.38,1.64,1.64,0,0,0-.72-.15,1.7,1.7,0,0,0-1,.24,1.61,1.61,0,0,0-.54.91,7.2,7.2,0,0,0-.19,1.89Z"/><text class="cls-2" transform="translate(332.02 404.44)">blog</text><line class="cls-3" x1="478.36" y1="478.36" x2="0.35" y2="0.35"/><line class="cls-3" x1="304.3" y1="395.81" x2="565.37" y2="134.75"/></svg>