<?xml version="1.0" encoding="utf-8"?>
<!-- Generator: Adobe Illustrator 20.1.0, SVG Export Plug-In . SVG Version: 6.00 Build 0)  -->
<svg version="1.1" id="Layer_1" xmlns="http://www.w3.org/2000/svg" xmlns:xlink="http://www.w3.org/1999/xlink" x="0px" y="0px"
	 viewBox="0 0 210.6 210.6" style="enable-background:new 0 0 210.6 210.6;" xml:space="preserve">
<style type="text/css">
	.st0{fill:#13181B;}
	.st1{fill:#131617;}
	.st2{fill:#ECF2F6;}
	.st3{fill:none;stroke:#ECF2F6;stroke-miterlimit:10;}
	.st4{fill:none;stroke:#D8C5AF;stroke-miterlimit:10;}
</style>
<g>
	<circle class="st0" cx="103.8" cy="103.6" r="81.3"/>
	<g>
		<path class="st1" d="M104.9,36.9c36.1-0.1,65.3,28.9,65.4,65.1c0,36.1-29,65.2-65.2,65.3c-36.2,0.1-65.2-28.9-65.3-65.1
			C39.8,65.9,68.6,37,104.9,36.9z M55.6,100.8c-7.2,13.5-3.9,29.5,7.8,36.8c7.8,4.9,16.8,7.9,25.3,11.8c5.6,2.6,11.2,5.2,16.5,7.7
			c4.7-1.6,9.9-3.6,15.2-5.4c5.8-2,11.8-3.3,17.3-5.8c17.6-7.9,24.9-25.7,18.3-44c-0.4,1-0.7,1.7-0.8,2.4
			c-2.3,17.8-12.5,28.4-29.8,32.8c-8.2,2.1-15.6,5.9-18.8,12.7c-5.4-4-10.3-8.3-16-11.5c-4.9-2.8-10.6-4.4-16-6.2
			c-11.8-3.9-17.1-12.7-18.5-24.4C55.9,106,55.8,104.1,55.6,100.8z M63,101c-0.8,0.1-1.5,0.3-2.3,0.4c-0.4,3.9-1.5,7.8-0.9,11.5
			c1.4,9.1,8.1,13.9,15.9,17.2c10.3,4.3,22.4,5.5,28.8,17.5c4.6-8.1,12-9.5,18.7-11.9c10.4-3.8,20.3-8.4,24-20.2
			c1.8-5.6,2.2-11.2-1.4-16.7c-1.6,16.1-12.1,24.2-25.7,29.5c-7,2.7-13,6.5-15.7,15.5c-2.1-11-9.8-14.6-17.6-17.9
			C75.5,121.1,64.1,116.2,63,101z M137,99.6c-3.7,9.5-11.8,13.8-20.3,17.3c-6.7,2.8-11.2,7.1-11.5,12.7c-3.3-3.4-6.8-8.4-11.6-11.5
			c-8.1-5.2-17.7-8.1-22.2-19.3c-1.9,8.2-0.9,13.9,4.6,18c3.6,2.7,7.7,4.8,11.6,7.2c5.8,3.6,11.7,7.1,18.2,11.1
			c1.6-1.6,4.2-4.7,7.4-6.9c4.4-3,9.3-5.2,14-7.7C135.6,115.8,139.4,108.3,137,99.6z M126.1,86.9c-0.8,9.2-5.1,14.3-11.1,18.6
			c-4.1,2.9-7.5,6.7-10.8,9.7c-7.6-7.2-15.8-14.9-24.1-22.8c0,8.2,2.1,15.1,10.5,19.5c5.5,2.9,10.1,7.3,15.1,11
			c1.5-1.7,3.4-4.6,5.9-6.8c2.7-2.4,5.9-4.2,8.8-6.3C128.3,103.8,130.6,96.3,126.1,86.9z M105.6,102.3C99.3,95,93,87.5,86,79.3
			c-2.1,7.9,1,12.7,5.3,17.1c4.7,4.8,9.4,9.6,13.9,14.2c3.6-4,7.8-8.6,11.8-13.4c5.4-6.6,6-11.7,2.9-17
			C115.1,87.7,110,95.6,105.6,102.3z M90.9,66.7c-4.3,15,9.8,19.3,13.6,29.1c11.9-14.1,14.8-22.8,9.9-28.3
			c-3.3,6.7-6.6,13.5-9.6,19.7C100.5,80.8,96.1,74.3,90.9,66.7z M104.1,70.8c-3-5.8-6-11.5-9.2-17.6c-4,9.2-1,16.8,9.8,25.8
			c8.6-11,10.6-17.8,6.8-24.2c-1.3,2.5-2.7,4.9-3.9,7.5C106.3,65,105.3,67.9,104.1,70.8z M102.9,54.8c-0.9-2.7-1.8-4.7-2.4-6.9
			c-0.6-2.1-1-4.2-1.5-6.6c-5,6.5-2.7,15.5,5.1,20.7c3.6-5.4,7.7-10.6,4.2-19.4C106.2,47.3,104.7,50.7,102.9,54.8z"/>
		<path class="st2" d="M55.6,100.8c0.2,3.2,0.3,5.1,0.5,7c1.4,11.7,6.7,20.5,18.5,24.4c5.4,1.8,11.1,3.4,16,6.2
			c5.6,3.2,10.6,7.5,16,11.5c3.1-6.8,10.6-10.6,18.8-12.7c17.3-4.4,27.5-15,29.8-32.8c0.1-0.7,0.5-1.3,0.8-2.4
			c6.7,18.3-0.7,36.1-18.3,44c-5.5,2.5-11.6,3.8-17.3,5.8c-5.3,1.8-10.5,3.7-15.2,5.4c-5.3-2.5-10.9-5.1-16.5-7.7
			c-8.5-3.9-17.5-6.9-25.3-11.8C51.7,130.3,48.4,114.3,55.6,100.8z"/>
		<path class="st2" d="M63,101c1.1,15.2,12.4,20.1,23.9,25c7.9,3.3,15.5,6.9,17.6,17.9c2.7-9,8.8-12.8,15.7-15.5
			c13.6-5.3,24.1-13.3,25.7-29.5c3.6,5.5,3.1,11.1,1.4,16.7c-3.7,11.7-13.5,16.4-24,20.2c-6.8,2.5-14.2,3.8-18.7,11.9
			c-6.4-12-18.5-13.1-28.8-17.5c-7.9-3.3-14.5-8.2-15.9-17.2c-0.6-3.7,0.6-7.7,0.9-11.5C61.5,101.3,62.3,101.1,63,101z"/>
		<path class="st2" d="M137,99.6c2.5,8.8-1.4,16.3-9.9,20.9c-4.7,2.5-9.6,4.7-14,7.7c-3.2,2.2-5.7,5.3-7.4,6.9
			c-6.5-3.9-12.3-7.5-18.2-11.1c-3.9-2.4-8-4.5-11.6-7.2c-5.5-4.1-6.6-9.8-4.6-18c4.5,11.2,14.1,14.2,22.2,19.3
			c4.8,3,8.3,8.1,11.6,11.5c0.3-5.7,4.8-10,11.5-12.7C125.2,113.3,133.2,109.1,137,99.6z"/>
		<path class="st2" d="M126.1,86.9c4.6,9.4,2.2,17-5.7,22.9c-2.9,2.2-6.1,3.9-8.8,6.3c-2.5,2.2-4.4,5.1-5.9,6.8
			c-5-3.7-9.6-8.2-15.1-11c-8.4-4.4-10.5-11.3-10.5-19.5c8.3,7.9,16.6,15.6,24.1,22.8c3.3-3,6.7-6.8,10.8-9.7
			C121,101.2,125.3,96.1,126.1,86.9z"/>
		<path class="st2" d="M105.6,102.3c4.4-6.7,9.6-14.6,14.4-22c3.1,5.3,2.5,10.4-2.9,17c-4,4.8-8.2,9.3-11.8,13.4
			c-4.5-4.6-9.3-9.4-13.9-14.2C87,92,83.9,87.2,86,79.3C93,87.5,99.3,95,105.6,102.3z"/>
		<path class="st2" d="M90.9,66.7c5.2,7.6,9.6,14.1,13.8,20.4c3-6.1,6.4-13,9.6-19.7c4.9,5.5,2,14.3-9.9,28.3
			C100.7,85.9,86.6,81.6,90.9,66.7z"/>
		<path class="st2" d="M104.1,70.8c1.2-2.9,2.2-5.8,3.5-8.5c1.2-2.6,2.6-5,3.9-7.5c3.7,6.4,1.8,13.3-6.8,24.2
			c-10.8-9-13.8-16.7-9.8-25.8C98,59.3,101,65,104.1,70.8z"/>
		<path class="st2" d="M102.9,54.8c1.8-4.1,3.3-7.4,5.4-12.2c3.4,8.8-0.6,14-4.2,19.4C96.3,56.7,94,47.8,99,41.3
			c0.5,2.4,0.9,4.6,1.5,6.6C101.1,50,102,52.1,102.9,54.8z"/>
	</g>
</g>
<circle class="st3" cx="104.4" cy="105.3" r="93.5"/>
<circle class="st4" cx="105.3" cy="105.3" r="104.8"/>
</svg>
